HIERARCHY
ROOT Hips
{
	OFFSET -0.001795 -0.223333 0.028219
	CHANNELS 6 Xposition Yposition Zposition Zrotation Yrotation Xrotation 
	JOINT LeftUpLeg
	{
		OFFSET 0.069520 -0.091406 -0.006815
		CHANNELS 3 Zrotation Yrotation Xrotation
		JOINT LeftLeg
		{
			OFFSET 0.034277 -0.375199 -0.004496
			CHANNELS 3 Zrotation Yrotation Xrotation
			JOINT LeftFoot
			{
				OFFSET -0.013596 -0.397961 -0.043693
				CHANNELS 3 Zrotation Yrotation Xrotation
				JOINT LeftToe
				{
					OFFSET 0.026358 -0.055791 0.119288
					CHANNELS 3 Zrotation Yrotation Xrotation
					End Site
					{
						OFFSET 0.000000 0.000000 0.000000
					}
				}
			}
		}
	}
	JOINT RightUpLeg
	{
		OFFSET -0.067670 -0.090522 -0.004320
		CHANNELS 3 Zrotation Yrotation Xrotation
		JOINT RightLeg
		{
			OFFSET -0.038290 -0.382569 -0.008850
			CHANNELS 3 Zrotation Yrotation Xrotation
			JOINT RightFoot
			{
				OFFSET 0.015774 -0.398415 -0.042312
				CHANNELS 3 Zrotation Yrotation Xrotation
				JOINT RightToe
				{
					OFFSET -0.025372 -0.048144 0.123348
					CHANNELS 3 Zrotation Yrotation Xrotation
					End Site
					{
						OFFSET 0.000000 0.000000 0.000000
					}
				}
			}
		}
	}
	JOINT Spine
	{
		OFFSET -0.002533 0.108963 -0.026696
		CHANNELS 3 Zrotation Yrotation Xrotation
		JOINT Spine1
		{
			OFFSET 0.005487 0.135180 0.001092
			CHANNELS 3 Zrotation Yrotation Xrotation
			JOINT Spine2
			{
				OFFSET 0.001457 0.052922 0.025425
				CHANNELS 3 Zrotation Yrotation Xrotation
				JOINT Neck
				{
					OFFSET -0.002778 0.213870 -0.042857
					CHANNELS 3 Zrotation Yrotation Xrotation
					JOINT Head
					{
						OFFSET 0.005152 0.064970 0.051349
						CHANNELS 3 Zrotation Yrotation Xrotation
						End Site
						{
							OFFSET 0.000000 0.000000 0.000000
						}
					}
				}
				JOINT LeftShoulder
				{
					OFFSET 0.078845 0.121749 -0.034090
					CHANNELS 3 Zrotation Yrotation Xrotation
					JOINT LeftArm
					{
						OFFSET 0.090977 0.030469 -0.008868
						CHANNELS 3 Zrotation Yrotation Xrotation
						JOINT LeftForeArm
						{
							OFFSET 0.259612 -0.012772 -0.027456
							CHANNELS 3 Zrotation Yrotation Xrotation
							JOINT LeftHand
							{
								OFFSET 0.249234 0.008986 -0.001171
								CHANNELS 3 Zrotation Yrotation Xrotation
								End Site
								{
									OFFSET 0.000000 0.000000 0.000000
								}
							}
						}
					}
				}
				JOINT RightShoulder
				{
					OFFSET -0.081759 0.118833 -0.038615
					CHANNELS 3 Zrotation Yrotation Xrotation
					JOINT RightArm
					{
						OFFSET -0.096012 0.032551 -0.009143
						CHANNELS 3 Zrotation Yrotation Xrotation
						JOINT RightForeArm
						{
							OFFSET -0.253742 -0.013329 -0.021401
							CHANNELS 3 Zrotation Yrotation Xrotation
							JOINT RightHand
							{
								OFFSET -0.255298 0.007772 -0.005559
								CHANNELS 3 Zrotation Yrotation Xrotation
								End Site
								{
									OFFSET 0.000000 0.000000 0.000000
								}
							}
						}
					}
				}
			}
		}
	}
}
MOTION
Frames: 5
Frame Time: 0.050000
0.000000 0.921167 0.000000 -1.567715 -3.019518 1.354242 -1.590918 -0.321436 -3.195420 -2.523883 0.210907 14.363269 3.544009 6.366511 -4.162831 0.000000 0.000000 0.000000 -4.836072 2.091060 -29.167758 3.620381 -0.214107 11.791270 -0.358949 -5.616250 10.587568 0.000000 0.000000 0.000000 4.361104 -1.785904 23.331766 -4.229314 1.627373 -17.814904 -2.922065 2.061984 19.414912 10.765117 -6.722350 -13.828489 0.000000 0.000000 0.000000 -15.495067 -23.318885 10.637841 -37.753562 -15.674424 -1.108424 -1.107016 -27.864267 1.312652 0.000000 0.000000 0.000000 29.107991 10.255198 4.904643 42.035294 15.595851 -0.523222 -3.194499 32.146292 0.486087 0.000000 0.000000 0.000000 
-0.010658 0.913507 0.035698 -1.477997 -2.807438 2.634256 -1.087212 -0.237041 -2.471592 -2.469596 0.190009 15.012551 3.834135 6.404153 -6.262382 0.000000 0.000000 0.000000 -5.647983 2.022059 -30.902461 2.852894 -0.198300 5.061751 1.168629 -2.898660 11.418721 0.000000 0.000000 0.000000 3.762263 -1.758933 24.563688 -3.505724 1.365922 -23.773590 -2.717580 0.998816 25.708506 11.059522 -7.075842 -15.883896 0.000000 0.000000 0.000000 -15.853555 -23.475376 11.265266 -37.227412 -17.653292 -1.187488 1.344053 -26.812718 0.727506 0.000000 0.000000 0.000000 28.768691 13.024427 6.548432 40.867813 17.331357 -0.480762 -6.387501 31.512010 -0.365406 0.000000 0.000000 0.000000 
-0.022987 0.905345 0.072223 -1.068814 0.254225 3.497585 -0.092794 -0.165575 -1.825198 -2.320441 0.019484 16.293434 3.206496 3.737497 -8.145843 0.000000 0.000000 0.000000 -5.783924 1.731066 -31.605368 1.317216 -0.027347 4.010873 1.086658 -2.344371 10.663985 0.000000 0.000000 0.000000 5.333006 -2.318175 24.617237 -3.615790 1.493085 -20.716994 -3.364674 1.462550 24.057458 11.749584 -6.019635 -21.002400 0.000000 0.000000 0.000000 -15.697664 -25.142339 11.508858 -35.967636 -21.635602 0.200352 0.850685 -26.265198 0.759077 0.000000 0.000000 0.000000 27.462419 11.651471 6.371571 42.406706 18.642800 -0.017314 -9.259979 30.304958 -0.938523 0.000000 0.000000 0.000000 
-0.037132 0.899155 0.110154 -0.794263 1.088270 5.274472 0.895899 -0.297857 -3.322546 -2.548389 -0.019708 20.306633 3.036671 3.238599 -8.079175 0.000000 0.000000 0.000000 -6.767822 1.542260 -35.337539 1.936923 -0.080401 5.870209 0.590739 -4.123039 13.240530 0.000000 0.000000 0.000000 6.419541 -2.801140 25.919227 -4.411492 1.691977 -21.680158 -3.424820 0.644214 25.199303 11.662403 -6.078514 -20.956448 0.000000 0.000000 0.000000 -15.485226 -25.852817 12.006242 -35.769428 -22.049273 0.172141 1.813803 -28.047042 0.598144 0.000000 0.000000 0.000000 26.107090 12.565954 6.779774 41.269452 20.501532 0.453558 -9.252520 29.257141 -0.932653 0.000000 0.000000 0.000000 
-0.052830 0.894816 0.149263 -0.880296 2.610690 6.327070 1.859146 -0.430523 -5.038391 -1.887854 -0.456559 25.418745 2.894946 4.069004 -5.131228 0.000000 0.000000 0.000000 -6.634410 1.434290 -36.960018 2.877705 -0.215810 9.117898 -0.209196 -6.047405 15.525308 0.000000 0.000000 0.000000 7.404890 -3.576168 28.946703 -3.523907 1.504115 -20.489897 -4.508482 1.282792 22.687540 13.325969 -6.914881 -20.219723 0.000000 0.000000 0.000000 -15.496684 -28.072144 12.760379 -35.049122 -23.964330 0.958133 2.354797 -28.186520 0.420400 0.000000 0.000000 0.000000 24.972825 13.591755 7.791656 41.175936 23.205400 1.468906 -11.355855 27.630694 -1.295566 0.000000 0.000000 0.000000 
